<svg width="149" height="66" viewBox="0 0 149 66" fill="none" xmlns="http://www.w3.org/2000/svg">
<path d="M73.75 57.75C76.7876 57.75 79.25 55.2876 79.25 52.25V42.1451C79.25 40.7998 79.25 40.1272 79.4021 39.4941C79.5368 38.9331 79.759 38.3966 80.0604 37.9043C80.4006 37.3494 80.8763 36.8737 81.8276 35.9224L84.75 33L81.8276 30.0776C80.8763 29.1263 80.4006 28.6506 80.0604 28.0957C79.759 27.6034 79.5368 27.067 79.4021 26.5058C79.25 25.8728 79.25 25.2002 79.25 23.8549V13.75C79.25 10.7124 76.7876 8.25 73.75 8.25" stroke="url(#paint0_linear_40_43)" stroke-width="5.5" stroke-linecap="round" stroke-linejoin="round"/>
<path d="M42.9747 47V29.15H46.5107V32.958L45.8647 33.366C46.0461 32.7767 46.3294 32.21 46.7147 31.666C47.1227 31.122 47.6101 30.646 48.1767 30.238C48.7661 29.8073 49.3894 29.4673 50.0467 29.218C50.7267 28.9687 51.4181 28.844 52.1207 28.844C53.1407 28.844 54.0361 29.014 54.8067 29.354C55.5774 29.694 56.2121 30.204 56.7107 30.884C57.2094 31.564 57.5721 32.414 57.7987 33.434L57.2547 33.298L57.4927 32.72C57.7421 32.1987 58.0821 31.7113 58.5127 31.258C58.9661 30.782 59.4761 30.3627 60.0427 30C60.6094 29.6373 61.2101 29.354 61.8447 29.15C62.4794 28.946 63.1027 28.844 63.7147 28.844C65.0521 28.844 66.1514 29.116 67.0127 29.66C67.8967 30.204 68.5541 31.0313 68.9847 32.142C69.4381 33.2527 69.6647 34.6353 69.6647 36.29V47H66.1287V36.494C66.1287 34.9753 65.8341 33.8647 65.2447 33.162C64.6781 32.4367 63.7827 32.074 62.5587 32.074C61.9241 32.074 61.3234 32.1873 60.7567 32.414C60.2127 32.618 59.7367 32.9127 59.3287 33.298C58.9207 33.6833 58.6034 34.1367 58.3767 34.658C58.1501 35.1567 58.0367 35.712 58.0367 36.324V47H54.5007V36.426C54.5007 35.0207 54.1947 33.944 53.5827 33.196C52.9934 32.448 52.1321 32.074 50.9987 32.074C50.3641 32.074 49.7747 32.1873 49.2307 32.414C48.6867 32.618 48.2107 32.9127 47.8027 33.298C47.3947 33.6607 47.0774 34.1027 46.8507 34.624C46.6241 35.1227 46.5107 35.6667 46.5107 36.256V47H42.9747Z" fill="url(#paint1_linear_40_43)"/>
<path d="M13.7068 8.24055C10.6692 8.24584 8.2111 10.7125 8.21639 13.7501L8.23398 23.855C8.23632 25.2003 8.23749 25.8729 8.08652 26.5062C7.95274 27.0675 7.73148 27.6044 7.43094 28.0972C7.09173 28.6527 6.61681 29.1293 5.66724 30.0822L2.7499 33.0097L5.67741 35.927C6.63029 36.8766 7.10687 37.3515 7.44801 37.9058C7.75027 38.3976 7.9734 38.9336 8.10913 39.4946C8.2623 40.1273 8.26347 40.7999 8.26581 42.1451L8.2834 52.2501C8.28869 55.2876 10.7553 57.7458 13.793 57.7405" stroke="white" stroke-width="5.5" stroke-linecap="round" stroke-linejoin="round"/>
<path d="M29.263 47.34C27.5177 47.34 25.9537 46.9433 24.571 46.15C23.211 45.334 22.1343 44.2347 21.341 42.852C20.5477 41.4467 20.151 39.8487 20.151 38.058C20.151 36.2673 20.5477 34.6807 21.341 33.298C22.1343 31.8927 23.211 30.7933 24.571 30C25.9537 29.184 27.5177 28.776 29.263 28.776C30.9857 28.776 32.527 29.184 33.887 30C35.2697 30.7933 36.3577 31.8927 37.151 33.298C37.9444 34.6807 38.341 36.2673 38.341 38.058C38.341 39.8487 37.9444 41.4467 37.151 42.852C36.3577 44.2347 35.2697 45.334 33.887 46.15C32.527 46.9433 30.9857 47.34 29.263 47.34ZM29.263 44.144C30.3283 44.144 31.2803 43.8833 32.119 43.362C32.9577 42.818 33.615 42.0927 34.091 41.186C34.567 40.2567 34.7937 39.214 34.771 38.058C34.7937 36.8793 34.567 35.8367 34.091 34.93C33.615 34.0007 32.9577 33.2753 32.119 32.754C31.2803 32.2327 30.3283 31.972 29.263 31.972C28.1977 31.972 27.2343 32.244 26.373 32.788C25.5343 33.3093 24.877 34.0347 24.401 34.964C23.925 35.8707 23.6983 36.902 23.721 38.058C23.6983 39.214 23.925 40.2567 24.401 41.186C24.877 42.0927 25.5343 42.818 26.373 43.362C27.2343 43.8833 28.1977 44.144 29.263 44.144Z" fill="white"/>
<path d="M99.9368 47.34C98.1915 47.34 96.6275 46.9433 95.2448 46.15C93.8848 45.334 92.8082 44.2347 92.0148 42.852C91.2215 41.4467 90.8248 39.8487 90.8248 38.058C90.8248 36.2673 91.2215 34.6807 92.0148 33.298C92.8082 31.8927 93.8848 30.7933 95.2448 30C96.6275 29.184 98.1915 28.776 99.9368 28.776C101.66 28.776 103.201 29.184 104.561 30C105.944 30.7933 107.032 31.8927 107.825 33.298C108.618 34.6807 109.015 36.2673 109.015 38.058C109.015 39.8487 108.618 41.4467 107.825 42.852C107.032 44.2347 105.944 45.334 104.561 46.15C103.201 46.9433 101.66 47.34 99.9368 47.34ZM99.9368 44.144C101.002 44.144 101.954 43.8833 102.793 43.362C103.632 42.818 104.289 42.0927 104.765 41.186C105.241 40.2567 105.468 39.214 105.445 38.058C105.468 36.8793 105.241 35.8367 104.765 34.93C104.289 34.0007 103.632 33.2753 102.793 32.754C101.954 32.2327 101.002 31.972 99.9368 31.972C98.8715 31.972 97.9082 32.244 97.0468 32.788C96.2082 33.3093 95.5508 34.0347 95.0748 34.964C94.5988 35.8707 94.3722 36.902 94.3948 38.058C94.3722 39.214 94.5988 40.2567 95.0748 41.186C95.5508 42.0927 96.2082 42.818 97.0468 43.362C97.9082 43.8833 98.8715 44.144 99.9368 44.144ZM112.899 47V21.84H116.401V47H112.899ZM121.432 47V21.84H124.934V47H121.432ZM137.589 47.34C135.844 47.34 134.28 46.9433 132.897 46.15C131.537 45.334 130.461 44.2347 129.667 42.852C128.874 41.4467 128.477 39.8487 128.477 38.058C128.477 36.2673 128.874 34.6807 129.667 33.298C130.461 31.8927 131.537 30.7933 132.897 30C134.28 29.184 135.844 28.776 137.589 28.776C139.312 28.776 140.853 29.184 142.213 30C143.596 30.7933 144.684 31.8927 145.477 33.298C146.271 34.6807 146.667 36.2673 146.667 38.058C146.667 39.8487 146.271 41.4467 145.477 42.852C144.684 44.2347 143.596 45.334 142.213 46.15C140.853 46.9433 139.312 47.34 137.589 47.34ZM137.589 44.144C138.655 44.144 139.607 43.8833 140.445 43.362C141.284 42.818 141.941 42.0927 142.417 41.186C142.893 40.2567 143.12 39.214 143.097 38.058C143.12 36.8793 142.893 35.8367 142.417 34.93C141.941 34.0007 141.284 33.2753 140.445 32.754C139.607 32.2327 138.655 31.972 137.589 31.972C136.524 31.972 135.561 32.244 134.699 32.788C133.861 33.3093 133.203 34.0347 132.727 34.964C132.251 35.8707 132.025 36.902 132.047 38.058C132.025 39.214 132.251 40.2567 132.727 41.186C133.203 42.0927 133.861 42.818 134.699 43.362C135.561 43.8833 136.524 44.144 137.589 44.144Z" fill="white"/>
<defs>
<linearGradient id="paint0_linear_40_43" x1="79.25" y1="8.25" x2="79.25" y2="57.75" gradientUnits="userSpaceOnUse">
<stop stop-color="#A78BAF"/>
<stop offset="1" stop-color="#60A5FA"/>
</linearGradient>
<linearGradient id="paint1_linear_40_43" x1="56.25" y1="13" x2="56.25" y2="65" gradientUnits="userSpaceOnUse">
<stop stop-color="#A78BAF"/>
<stop offset="1" stop-color="#60A5FA"/>
</linearGradient>
</defs>
</svg>
